<svg id="Layer_1" enable-background="new 0 0 512 512" height="512" viewBox="0 0 512 512" width="512" xmlns="http://www.w3.org/2000/svg"><path d="m503 256c0 65.976-25.692 128.003-72.345 174.655-46.652 46.653-108.679 72.345-174.655 72.345-56.199 0-110.294-19.009-153.928-53.816l1.922 21.64c.342 3.851-2.503 7.25-6.354 7.592-3.856.34-7.25-2.503-7.592-6.354l-3.44-38.748c-.342-3.851 2.503-7.25 6.354-7.592l38.753-3.441c3.839-.345 7.249 2.502 7.592 6.354.342 3.851-2.503 7.25-6.354 7.592l-22.202 1.971c41.167 32.858 92.214 50.802 145.249 50.802 128.477 0 233-104.523 233-233 0-33.587-6.989-65.993-20.774-96.318-1.601-3.52-.044-7.669 3.476-9.27 3.519-1.599 7.669-.044 9.269 3.476 14.616 32.157 22.029 66.513 22.029 102.112zm-480 0c0-128.477 104.524-233 233-233 53.035 0 104.082 17.945 145.248 50.803l-22.202 1.971c-3.851.342-6.695 3.741-6.354 7.592.342 3.85 3.724 6.69 7.592 6.354l38.753-3.44c1.85-.164 3.558-1.056 4.749-2.48s1.769-3.263 1.604-5.112l-3.44-38.748c-.342-3.851-3.747-6.694-7.592-6.354-3.851.342-6.695 3.741-6.354 7.592l1.922 21.639c-43.633-34.809-97.726-53.817-153.926-53.817-65.976 0-128.003 25.692-174.655 72.344-46.652 46.653-72.345 108.68-72.345 174.656 0 35.599 7.412 69.955 22.03 102.111 1.173 2.58 3.716 4.105 6.376 4.105.969 0 1.953-.203 2.893-.629 3.52-1.6 5.076-5.75 3.476-9.27-13.785-30.324-20.775-62.73-20.775-96.317zm63.532 37.052c-10.43 0-18.915-8.485-18.915-18.915v-36.275c0-10.43 8.485-18.915 18.915-18.915 16.303 0 26.491-10.575 30.59-20.471 4.1-9.897 4.373-24.58-7.155-36.108-7.375-7.375-7.375-19.375 0-26.75l25.651-25.652c7.375-7.375 19.376-7.375 26.751 0 11.527 11.527 26.209 11.254 36.107 7.156 9.896-4.099 20.472-14.288 20.472-30.591 0-10.43 8.484-18.915 18.914-18.915h36.276c10.43 0 18.914 8.485 18.914 18.915 0 16.303 10.575 26.492 20.472 30.591 9.896 4.1 24.58 4.374 36.107-7.155 7.375-7.374 19.376-7.375 26.751 0l25.651 25.652c7.375 7.375 7.375 19.375 0 26.75-11.528 11.528-11.255 26.211-7.155 36.108 4.099 9.896 14.287 20.471 30.59 20.471 10.43 0 18.915 8.485 18.915 18.915v36.275c0 10.43-8.485 18.915-18.915 18.915-16.302 0-26.491 10.575-30.59 20.472-4.1 9.897-4.373 24.58 7.155 36.108 7.375 7.375 7.375 19.375 0 26.75l-25.651 25.651c-7.377 7.375-19.378 7.374-26.751 0-11.528-11.528-26.211-11.254-36.107-7.155s-20.472 14.288-20.472 30.591c0 10.429-8.484 18.914-18.914 18.914h-36.276c-10.43 0-18.914-8.485-18.914-18.914 0-16.328-10.569-26.523-20.46-30.62-9.892-4.096-24.572-4.361-36.118 7.184-7.377 7.374-19.375 7.376-26.752 0l-25.651-25.651c-7.375-7.375-7.375-19.375 0-26.75 11.528-11.528 11.255-26.211 7.155-36.108-4.099-9.898-14.289-20.473-30.59-20.473zm0-14c19.408 0 36.086 11.156 43.524 29.114 7.439 17.959 3.534 37.641-10.189 51.365-1.917 1.917-1.917 5.035 0 6.951l25.651 25.651c1.916 1.916 5.034 1.917 6.952 0 9.135-9.135 20.898-13.927 33.034-13.927 6.115 0 12.325 1.217 18.341 3.708 17.951 7.436 29.103 24.125 29.103 43.555 0 2.709 2.204 4.914 4.914 4.914h36.276c2.71 0 4.914-2.205 4.914-4.914 0-19.409 11.156-36.086 29.114-43.525 17.956-7.438 37.641-3.534 51.365 10.19 1.916 1.916 5.034 1.917 6.95 0l25.651-25.651c1.917-1.917 1.917-5.035 0-6.951-13.724-13.724-17.629-33.406-10.189-51.365 7.438-17.958 24.116-29.114 43.524-29.114 2.71 0 4.915-2.205 4.915-4.915v-36.275c0-2.71-2.205-4.915-4.915-4.915-19.408 0-36.086-11.156-43.524-29.114-7.439-17.958-3.534-37.641 10.189-51.365 1.917-1.917 1.917-5.035 0-6.951l-25.651-25.652c-1.917-1.917-5.035-1.916-6.95 0-13.726 13.725-33.41 17.628-51.365 10.19-17.958-7.438-29.114-24.117-29.114-43.525 0-2.71-2.204-4.915-4.914-4.915h-36.276c-2.71 0-4.914 2.205-4.914 4.915 0 19.409-11.156 36.087-29.114 43.525-17.96 7.437-37.641 3.534-51.364-10.19-1.916-1.916-5.035-1.916-6.951 0l-25.651 25.652c-1.917 1.917-1.917 5.035 0 6.951 13.724 13.724 17.628 33.406 10.189 51.365-7.438 17.958-24.116 29.114-43.524 29.114-2.71 0-4.915 2.205-4.915 4.915v36.275c-.001 2.71 2.204 4.914 4.914 4.914zm75.315-23.052c0-51.916 42.237-94.153 94.153-94.153s94.152 42.237 94.152 94.153-42.235 94.153-94.152 94.153-94.153-42.237-94.153-94.153zm14 0c0 44.196 35.957 80.153 80.153 80.153s80.152-35.957 80.152-80.153-35.955-80.153-80.152-80.153-80.153 35.957-80.153 80.153zm28.278 36.486c-3.866 0-7-3.134-7-7s3.134-7 7-7h8.138v-15.486h-8.138c-3.866 0-7-3.134-7-7s3.134-7 7-7h8.138v-15.486h-8.138c-3.866 0-7-3.134-7-7s3.134-7 7-7h10.969c1.179-1.739 2.681-3.241 4.42-4.42v-10.968c0-3.866 3.134-7 7-7s7 3.134 7 7v8.138h15.486v-8.138c0-3.866 3.134-7 7-7s7 3.134 7 7v8.138h15.485v-8.138c0-3.866 3.134-7 7-7s7 3.134 7 7v10.968c1.739 1.179 3.241 2.681 4.42 4.42h10.969c3.866 0 7 3.134 7 7s-3.134 7-7 7h-8.138v15.486h8.138c3.866 0 7 3.134 7 7s-3.134 7-7 7h-8.138v15.486h8.138c3.866 0 7 3.134 7 7s-3.134 7-7 7h-10.968c-1.179 1.739-2.682 3.241-4.42 4.42v10.968c0 3.866-3.134 7-7 7s-7-3.134-7-7v-8.137h-15.486v8.137c0 3.866-3.134 7-7 7s-7-3.134-7-7v-8.137h-15.486v8.137c0 3.866-3.134 7-7 7s-7-3.134-7-7v-10.968c-1.739-1.179-3.241-2.682-4.42-4.42zm24.611-66.223c-1.34 0-2.473 1.132-2.473 2.473v54.528c0 1.341 1.133 2.473 2.473 2.473h54.528c1.34 0 2.473-1.132 2.473-2.473v-54.528c0-1.341-1.133-2.473-2.473-2.473z"/></svg>