<svg clip-rule="evenodd" fill-rule="evenodd" stroke-linejoin="round" stroke-miterlimit="2" viewBox="0 0 510 510" xmlns="http://www.w3.org/2000/svg"><path d="m7 425.227v-340.427c0-15.893 13.01-28.903 28.903-28.903h438.221c15.896 0 28.876 13.007 28.876 28.903v340.427c0 15.861-12.977 28.876-28.876 28.876h-438.221c-15.896 0-28.903-13.018-28.903-28.876zm480-294.743v-45.684c0-7.092-5.783-12.903-12.876-12.903h-438.221c-7.095 0-12.903 5.808-12.903 12.903v45.684zm-194.765 307.619h181.889c7.09 0 12.876-5.803 12.876-12.876v-278.743h-194.765zm-269.235-291.619v278.743c0 7.076 5.811 12.876 12.903 12.876h240.332v-291.619zm48.811-33.1c-6.721 0-12.207-5.459-12.207-12.18s5.486-12.207 12.207-12.207 12.207 5.486 12.207 12.207-5.486 12.18-12.207 12.18zm46.853 0c-6.72 0-12.207-5.459-12.207-12.18s5.487-12.207 12.207-12.207c6.721 0 12.18 5.486 12.18 12.207s-5.459 12.18-12.18 12.18zm46.826 0c-6.72 0-12.207-5.459-12.207-12.18s5.487-12.207 12.207-12.207c6.721 0 12.207 5.486 12.207 12.207s-5.486 12.18-12.207 12.18zm195.485 144.654c8.487 0 15.367 6.88 15.367 15.367v37.776c0 8.487-6.88 15.368-15.367 15.368h-37.776c-8.487 0-15.367-6.881-15.367-15.368v-37.776c0-8.487 6.88-15.367 15.367-15.367zm-37.143 52.511h36.51v-36.511h-36.51zm37.143 46.866c8.487 0 15.367 6.88 15.367 15.367v37.776c0 8.487-6.88 15.367-15.367 15.367h-37.776c-8.487 0-15.367-6.88-15.367-15.367v-37.776c0-8.487 6.88-15.367 15.367-15.367zm-37.143 52.51h36.51v-36.51h-36.51zm132.205-251.263c8.487 0 15.367 6.88 15.367 15.367v37.776c0 8.487-6.88 15.367-15.367 15.367h-37.776c-8.488 0-15.368-6.88-15.368-15.367v-37.776c0-8.487 6.88-15.367 15.368-15.367zm-37.144 52.51h36.511v-36.51h-36.511zm-57.918-52.51c8.487 0 15.367 6.88 15.367 15.367v37.776c0 8.487-6.88 15.367-15.367 15.367h-37.776c-8.487 0-15.367-6.88-15.367-15.367v-37.776c0-8.487 6.88-15.367 15.367-15.367zm-37.143 52.51h36.51v-36.51h-36.51zm132.205 46.866c8.487 0 15.367 6.88 15.367 15.367v37.776c0 8.487-6.88 15.368-15.367 15.368h-37.776c-8.488 0-15.368-6.881-15.368-15.368v-37.776c0-8.487 6.88-15.367 15.368-15.367zm-37.144 52.511h36.511v-36.511h-36.511zm37.144 46.866c8.487 0 15.367 6.88 15.367 15.367v37.776c0 8.487-6.88 15.367-15.367 15.367h-37.776c-8.488 0-15.368-6.88-15.368-15.367v-37.776c0-8.487 6.88-15.367 15.368-15.367zm-37.144 52.51h36.511v-36.51h-36.511zm-283.339 3.223c0 4.416-3.585 8-8 8s-8-3.584-8-8v-65.447c-19.138-10.148-32.197-30.296-32.197-53.463 0-23.599 13.494-44.03 33.179-54.022 2.48-1.258 5.435-1.139 7.806.316 2.37 1.455 3.814 4.037 3.814 6.818v48.19l15.72 9.072 15.719-9.072v-48.19c0-2.781 1.444-5.363 3.815-6.818 2.37-1.455 5.326-1.574 7.806-.316 19.685 9.992 33.179 30.423 33.179 54.022 0 23.17-13.032 43.319-32.198 53.467v64.779c0 4.415-3.584 8-8 8-4.415 0-8-3.585-8-8v-69.836c0-3.225 1.936-6.134 4.91-7.379 16.044-6.72 27.288-22.573 27.288-41.031 0-12.179-4.886-23.211-12.8-31.25v37.172c0 2.859-1.525 5.5-4.001 6.929l-23.72 13.688c-2.474 1.428-5.522 1.428-7.997 0l-23.719-13.688c-2.476-1.429-4.002-4.07-4.002-6.929 0 0 0-37.172.001-37.173-7.915 8.04-12.8 19.072-12.8 31.251 0 18.46 11.274 34.313 27.292 41.033 2.972 1.246 4.905 4.154 4.905 7.377zm-34.988-56.449c4.037-1.788 8.767.037 10.555 4.074s-.038 8.767-4.075 10.555l-15.938 7.06c-3.023 1.339-6.558.68-8.896-1.658l-18.773-18.772c-2.341-2.341-2.998-5.882-1.653-8.908 0 0 5.42-12.188 5.42-12.188-3.337-6.018-5.98-12.403-7.896-19.021l-12.448-4.791c-3.089-1.189-5.127-4.157-5.127-7.466v-26.554c0-3.31 2.038-6.278 5.127-7.466 0 0 12.445-4.79 12.445-4.79 1.917-6.633 4.561-13.012 7.901-19.044l-5.422-12.194c-1.345-3.025-.688-6.566 1.653-8.907l18.773-18.772c2.341-2.341 5.882-2.998 8.907-1.653 0 0 12.193 5.421 12.193 5.422 6.031-3.339 12.408-5.981 19.025-7.884l4.811-12.469c1.191-3.085 4.157-5.12 7.464-5.12h26.554c3.311 0 6.28 2.04 7.468 5.131 0 0 4.788 12.46 4.787 12.46 6.615 1.903 12.989 4.544 19.018 7.881l12.194-5.421c3.025-1.345 6.566-.688 8.907 1.653l18.772 18.772c2.338 2.338 2.997 5.874 1.658 8.897 0 0-5.403 12.197-5.403 12.197 3.341 6.036 5.985 12.419 7.889 19.055l12.433 4.786c3.089 1.188 5.127 4.156 5.127 7.466v26.554c0 3.309-2.038 6.277-5.127 7.466 0 0-12.438 4.787-12.438 4.787-1.907 6.615-4.56 12.989-7.888 19.018l5.407 12.206c1.339 3.023.68 6.558-1.658 8.897l-18.772 18.772c-2.338 2.338-5.874 2.997-8.897 1.658l-15.938-7.06c-4.037-1.788-5.863-6.518-4.074-10.555 1.788-4.037 6.517-5.862 10.554-4.074l10.921 4.837 11.013-11.012-4.838-10.921c-1.065-2.404-.88-5.178.493-7.419 4.211-6.874 7.336-14.351 9.2-22.192.61-2.568 2.447-4.669 4.91-5.617l11.132-4.284v-15.568l-11.132-4.285c-2.465-.948-4.302-3.052-4.911-5.621-1.862-7.858-4.957-15.33-9.188-22.196-1.383-2.245-1.572-5.027-.504-7.437 0 0 4.838-10.921 4.838-10.921s-11.007-11.007-11.007-11.007l-10.917 4.854c-2.412 1.073-5.199.886-7.447-.499-6.867-4.232-14.339-7.327-22.174-9.189-2.569-.611-4.671-2.449-5.618-4.914l-4.286-11.155h-15.57l-4.309 11.166c-.949 2.459-3.049 4.293-5.613 4.903-7.835 1.862-15.307 4.957-22.175 9.189-2.248 1.385-5.034 1.572-7.447.499l-10.916-4.854s-11.001 11.001-11.001 11.001l4.854 10.917c1.072 2.412.885 5.199-.5 7.447-4.235 6.873-7.332 14.352-9.22 22.218-.614 2.56-2.449 4.654-4.905 5.599l-11.133 4.285v15.568l11.133 4.284c2.455.945 4.288 3.036 4.904 5.594 1.887 7.838 4.981 15.34 9.215 22.186 1.391 2.25 1.58 5.041.506 7.458l-4.854 10.917 11.006 11.006z"/></svg>